<svg xmlns="http://www.w3.org/2000/svg" width="900" height="430" viewBox="0 0 900 430">
<rect width="900" height="430" rx="18" fill="#0d1117" stroke="#30363d"/>
<text x="42" y="48" fill="#f0f6fc" font-family="Arial,sans-serif" font-size="24" font-weight="700">GitHub Analytics</text>
<text x="42" y="76" fill="#8b949e" font-family="Arial,sans-serif" font-size="14">praharaj03 · refreshed automatically</text>
<g font-family="Arial,sans-serif">
  <text x="42" y="120" fill="#58a6ff" font-size="25" font-weight="700">75</text><text x="42" y="143" fill="#8b949e" font-size="13">Public repos</text>
  <text x="190" y="120" fill="#58a6ff" font-size="25" font-weight="700">1</text><text x="190" y="143" fill="#8b949e" font-size="13">Followers</text>
  <text x="338" y="120" fill="#58a6ff" font-size="25" font-weight="700">3</text><text x="338" y="143" fill="#8b949e" font-size="13">Following</text>
  <text x="486" y="120" fill="#58a6ff" font-size="25" font-weight="700">39</text><text x="486" y="143" fill="#8b949e" font-size="13">Total stars</text>
  <text x="634" y="120" fill="#58a6ff" font-size="25" font-weight="700">0</text><text x="634" y="143" fill="#8b949e" font-size="13">Total forks</text>
</g>
<text x="42" y="178" fill="#f0f6fc" font-family="Arial,sans-serif" font-size="17" font-weight="600">Top languages</text>
<g font-family="Arial,sans-serif"><text x="42" y="205" fill="#c9d1d9" font-size="15">JavaScript</text><rect x="145" y="192" width="360" height="12" rx="6" fill="#21262d"/><rect x="145" y="192" width="225" height="12" rx="6" fill="#58a6ff"/><text x="520" y="205" fill="#8b949e" font-size="13">62.7%</text><text x="42" y="233" fill="#c9d1d9" font-size="15">TypeScript</text><rect x="145" y="220" width="360" height="12" rx="6" fill="#21262d"/><rect x="145" y="220" width="92" height="12" rx="6" fill="#58a6ff"/><text x="520" y="233" fill="#8b949e" font-size="13">25.8%</text><text x="42" y="261" fill="#c9d1d9" font-size="15">CSS</text><rect x="145" y="248" width="360" height="12" rx="6" fill="#21262d"/><rect x="145" y="248" width="27" height="12" rx="6" fill="#58a6ff"/><text x="520" y="261" fill="#8b949e" font-size="13">7.6%</text><text x="42" y="289" fill="#c9d1d9" font-size="15">HTML</text><rect x="145" y="276" width="360" height="12" rx="6" fill="#21262d"/><rect x="145" y="276" width="13" height="12" rx="6" fill="#58a6ff"/><text x="520" y="289" fill="#8b949e" font-size="13">3.6%</text><text x="42" y="317" fill="#c9d1d9" font-size="15">SCSS</text><rect x="145" y="304" width="360" height="12" rx="6" fill="#21262d"/><rect x="145" y="304" width="8" height="12" rx="6" fill="#58a6ff"/><text x="520" y="317" fill="#8b949e" font-size="13">0.2%</text><text x="42" y="345" fill="#c9d1d9" font-size="15">EJS</text><rect x="145" y="332" width="360" height="12" rx="6" fill="#21262d"/><rect x="145" y="332" width="8" height="12" rx="6" fill="#58a6ff"/><text x="520" y="345" fill="#8b949e" font-size="13">0.2%</text></g>
<text x="42" y="400" fill="#6e7681" font-family="Arial,sans-serif" font-size="12">Generated from GitHub's public API · no third-party stats server</text>
</svg>